<svg width="16" height="16" viewBox="0 0 16 16" fill="none" xmlns="http://www.w3.org/2000/svg">
<path fill-rule="evenodd" clip-rule="evenodd" d="M7.05535 0.872399C7.19695 0.812866 7.35802 0.821712 7.49228 0.896392C9.05742 1.76723 10.7781 3.29267 12.0751 5.00153C13.3591 6.69338 14.3052 8.66791 14.1497 10.4322C14.0275 11.8202 13.4501 12.8738 12.5829 13.6459C11.7277 14.4074 10.6152 14.8743 9.44168 15.1531C9.23815 15.2014 9.02602 15.118 8.91002 14.9439C8.79402 14.7698 8.79861 14.5419 8.92162 14.3727L8.92208 14.372L8.92455 14.3687L8.93528 14.3537C8.94495 14.3401 8.95962 14.3194 8.97855 14.2924C9.01642 14.2382 9.07142 14.1582 9.13855 14.0573C9.27308 13.8552 9.45515 13.5704 9.64502 13.2408C10.0293 12.5736 10.4141 11.7758 10.5363 11.1184C10.6388 10.0349 10.2999 9.13831 9.83035 8.45491C9.64322 8.18258 9.43755 7.94738 9.23488 7.75131C9.23675 7.83698 9.23695 7.92565 9.23508 8.01665C9.21888 8.81198 9.04242 9.87418 8.31395 10.6757C8.19308 10.8086 8.01022 10.8666 7.83488 10.8274C7.65955 10.7882 7.51875 10.658 7.46595 10.4862C7.15035 9.45878 6.65234 8.97938 6.2709 8.74845C6.27605 8.89431 6.26746 9.03611 6.24669 9.17425C6.18557 9.58065 6.02356 9.92351 5.85347 10.2145C5.76876 10.3594 5.67825 10.4976 5.59525 10.6237L5.5803 10.6464C5.50096 10.7669 5.42936 10.8756 5.36405 10.9846C5.22533 11.216 5.14083 11.4078 5.11383 11.5976C4.96846 12.6192 5.26735 13.2695 5.57364 13.6637C5.73117 13.8664 5.89701 14.009 6.02136 14.0996C6.08326 14.1446 6.13392 14.1762 6.16665 14.1952C6.18298 14.2047 6.19471 14.211 6.20099 14.2144L6.20548 14.2167L6.20427 14.2161L6.20344 14.2157L6.20548 14.2167C6.44308 14.3321 6.55058 14.613 6.44952 14.8576C6.34797 15.1034 6.07184 15.2266 5.82109 15.1382C3.44751 14.3008 2.28035 12.6602 1.94103 10.9863C1.61157 9.36105 2.06463 7.69145 2.93876 6.76751C3.28613 6.35437 3.61204 5.97649 3.91632 5.62371C5.36206 3.94749 6.31922 2.83775 6.76688 1.20138C6.80742 1.05323 6.91375 0.931926 7.05535 0.872399Z" fill="#62748E"/>
</svg>
