<svg width="16" height="16" viewBox="0 0 16 16" fill="none" xmlns="http://www.w3.org/2000/svg">
<path d="M11.4676 1.33331H4.53251C3.56067 1.33331 2.70801 1.98978 2.66907 2.93568C2.62006 4.12584 3.45709 4.91613 4.33623 5.65805C5.55241 6.68438 6.1605 7.19758 6.22428 7.84718C6.23426 7.94885 6.23426 8.05111 6.22428 8.15278C6.1605 8.80238 5.55241 9.31558 4.33623 10.3419C3.43288 11.1042 2.61753 11.813 2.66907 13.0642C2.70801 14.0102 3.56067 14.6666 4.53251 14.6666H11.4676C12.4394 14.6666 13.2921 14.0102 13.331 13.0642C13.362 12.3112 13.0829 11.5613 12.4901 11.04C12.2199 10.8022 11.9393 10.5743 11.6639 10.3419C10.4477 9.31558 9.8396 8.80238 9.7758 8.15278C9.7658 8.05111 9.7658 7.94885 9.7758 7.84718C9.8396 7.19758 10.4477 6.68438 11.6639 5.65805C12.5577 4.9037 13.3819 4.17204 13.331 2.93568C13.2921 1.98978 12.4394 1.33331 11.4676 1.33331Z" fill="#62748E"/>
</svg>
