<svg width="20" height="20" viewBox="0 0 20 20" fill="none" xmlns="http://www.w3.org/2000/svg">
<g opacity="0.5">
<path d="M12.4581 8.76791C10.7468 9.52658 9.52658 10.7468 8.76791 12.4581C8.51983 13.0177 8.13233 13.4675 7.64343 13.7831L6.40298 12.5426C6.79418 12.4122 7.07875 12.1561 7.24428 11.7827C8.17056 9.69316 9.69316 8.17056 11.7827 7.24428C12.1561 7.07874 12.4122 6.79418 12.5426 6.40298L13.7831 7.64343C13.4675 8.13233 13.0177 8.51983 12.4581 8.76791Z" fill="#7CCF00"/>
<path fill-rule="evenodd" clip-rule="evenodd" d="M7.7421 17.9542C7.43935 18.019 7.12169 17.9914 6.8316 17.8713C6.6589 17.7997 6.52062 17.6961 6.40045 17.5913L2.40773 13.5986C2.30291 13.4784 2.1993 13.3401 2.12777 13.1674C2.00761 12.8773 1.97998 12.5597 2.04484 12.2569C2.1039 11.9813 2.26417 11.7869 2.38046 11.6707L3.2852 10.7659C3.40149 10.6496 3.59581 10.4893 3.87149 10.4303C4.17422 10.3654 4.4919 10.393 4.78199 10.5132C4.95469 10.5848 5.21313 10.7932 5.21313 10.7932L9.20582 14.7859C9.31065 14.9061 9.41424 15.0443 9.48582 15.217C9.60599 15.5071 9.63357 15.8248 9.56874 16.1275C9.50965 16.4032 9.3494 16.5975 9.23315 16.7138L8.32838 17.6186C8.21209 17.7348 8.01777 17.8951 7.7421 17.9542ZM4.51533 18.9583C4.89593 18.9583 5.1984 18.7966 5.45334 18.6021C5.46482 18.5933 5.47636 18.5843 5.48795 18.5753C5.66797 18.4334 5.75797 18.3626 5.76461 18.2504C5.77125 18.1383 5.6837 18.0508 5.50863 17.8757L2.12456 14.4916C1.94948 14.3165 1.86194 14.229 1.74981 14.2357C1.6377 14.2423 1.5668 14.3323 1.42501 14.5123C1.41588 14.5238 1.40693 14.5354 1.39816 14.5469C1.20365 14.8018 1.04191 15.1043 1.04191 15.4849C1.04191 15.8655 1.20365 16.168 1.39816 16.4229C1.52666 16.5913 1.69471 16.7704 1.88407 16.9628L1.28019 17.5668C0.962146 17.8848 0.962146 18.4004 1.28019 18.7184C1.59822 19.0365 2.11387 19.0365 2.43191 18.7184L3.03579 18.1146C3.2288 18.3046 3.40844 18.4733 3.57733 18.6021C3.83226 18.7966 4.13473 18.9583 4.51533 18.9583Z" fill="#7CCF00"/>
<path fill-rule="evenodd" clip-rule="evenodd" d="M14.5466 1.39791C14.8016 1.2034 15.1041 1.04166 15.4846 1.04166C15.8652 1.04166 16.1677 1.2034 16.4226 1.39791C16.5914 1.52665 16.7708 1.69509 16.9636 1.88488L17.5683 1.28019C17.8863 0.962148 18.402 0.962148 18.7201 1.28019C19.0381 1.59823 19.0381 2.11387 18.7201 2.43191L18.1153 3.03661C18.3049 3.22921 18.4731 3.40849 18.6018 3.57707C18.7963 3.83201 18.9581 4.13448 18.9581 4.51508C18.9581 4.89567 18.7963 5.19814 18.6018 5.45308C18.5931 5.46457 18.5841 5.47611 18.575 5.48771C18.4331 5.66771 18.3622 5.75772 18.2501 5.76436C18.138 5.771 18.0505 5.68346 17.8754 5.50837L14.4913 2.1243C14.3162 1.94922 14.2287 1.86168 14.2353 1.74956C14.242 1.63743 14.332 1.56654 14.512 1.42476C14.5236 1.41562 14.5351 1.40667 14.5466 1.39791ZM12.2579 2.04581C12.5606 1.98096 12.8782 2.00859 13.1684 2.12875C13.3411 2.20028 13.4793 2.30389 13.5995 2.40871L17.5922 6.40143C17.6971 6.5216 17.8006 6.65987 17.8721 6.83257C17.9923 7.12266 18.02 7.44033 17.9551 7.74307C17.8961 8.01875 17.7358 8.21306 17.6195 8.32936L16.7147 9.23407C16.5985 9.35041 16.4041 9.51066 16.1285 9.56974C15.8257 9.63457 15.5081 9.60699 15.218 9.48682C15.0453 9.41524 14.7868 9.20682 14.7868 9.20682L10.7941 5.21411C10.6893 5.09394 10.5856 4.95566 10.5141 4.78296C10.394 4.49287 10.3664 4.17521 10.4312 3.87246C10.4903 3.59679 10.6506 3.40247 10.7668 3.28618L11.6716 2.38144C11.7879 2.26516 11.9821 2.10487 12.2579 2.04581Z" fill="#7CCF00"/>
</g>
</svg>
