<svg width="21" height="20" viewBox="0 0 21 20" fill="none" xmlns="http://www.w3.org/2000/svg">
<g opacity="0.5">
<path d="M3.95409 2.79596C6.43823 1.27219 8.66675 1.87948 10.013 2.89051C10.2345 3.05684 10.3865 3.17067 10.4997 3.24754C10.6128 3.17067 10.7648 3.05684 10.9863 2.89051C12.3326 1.87948 14.5612 1.27219 17.0453 2.79596C18.763 3.8496 19.7295 6.0505 19.3903 8.57925C19.0496 11.1203 17.4049 13.9941 13.9219 16.5721C12.7124 17.4678 11.8248 18.1253 10.4997 18.1253C9.17459 18.1253 8.28695 17.4678 7.07745 16.5721C3.59445 13.9941 1.9498 11.1203 1.60901 8.57925C1.26986 6.0505 2.23638 3.8496 3.95409 2.79596Z" fill="#FF925F"/>
</g>
</svg>
