<svg width="21" height="20" viewBox="0 0 21 20" fill="none" xmlns="http://www.w3.org/2000/svg">
<g opacity="0.5">
<path fill-rule="evenodd" clip-rule="evenodd" d="M9.31917 1.09051C9.49617 1.0161 9.6975 1.02716 9.86534 1.12051C11.8218 2.20905 13.9726 4.11586 15.5938 6.25193C17.1988 8.36674 18.3815 10.8349 18.1872 13.0403C18.0343 14.7752 17.3126 16.0922 16.2287 17.0574C15.1596 18.0093 13.769 18.5929 12.3021 18.9414C12.0477 19.0018 11.7825 18.8975 11.6375 18.6799C11.4925 18.4622 11.4983 18.1774 11.652 17.9659L11.6526 17.9651L11.6557 17.9609L11.6691 17.9422C11.6812 17.9252 11.6995 17.8993 11.7232 17.8655C11.7705 17.7977 11.8393 17.6978 11.9232 17.5717C12.0913 17.319 12.3189 16.963 12.5563 16.5511C13.0367 15.7171 13.5177 14.7197 13.6703 13.8981C13.7985 12.5437 13.3749 11.4229 12.7879 10.5687C12.554 10.2282 12.2969 9.93424 12.0436 9.68916C12.0459 9.79624 12.0462 9.90707 12.0438 10.0208C12.0236 11.015 11.803 12.3427 10.8924 13.3447C10.7413 13.5108 10.5128 13.5832 10.2936 13.5342C10.0744 13.4853 9.89842 13.3225 9.83242 13.1078C9.43792 11.8235 8.8154 11.2242 8.3386 10.9356C8.34504 11.1179 8.3343 11.2952 8.30834 11.4678C8.23194 11.9758 8.02944 12.4044 7.81682 12.7682C7.71094 12.9493 7.59779 13.1221 7.49404 13.2797L7.47536 13.3081C7.37619 13.4587 7.28668 13.5946 7.20504 13.7307C7.03164 14.0201 6.92602 14.2598 6.89227 14.4971C6.71056 15.774 7.08417 16.5869 7.46703 17.0797C7.66394 17.3331 7.87124 17.5112 8.02668 17.6245C8.10406 17.6808 8.16739 17.7202 8.20829 17.7441C8.2287 17.7559 8.24337 17.7638 8.25123 17.768L8.25684 17.7709L8.25532 17.7702L8.25429 17.7697L8.25684 17.7709C8.55383 17.9152 8.6882 18.2663 8.56189 18.572C8.43494 18.8792 8.08979 19.0333 7.77634 18.9227C4.80937 17.8761 3.35042 15.8252 2.92627 13.7329C2.51444 11.7013 3.08077 9.61432 4.17344 8.45941C4.60764 7.94297 5.01504 7.47063 5.39539 7.02966C7.20256 4.93438 8.39901 3.54721 8.95859 1.50174C9.00925 1.31655 9.14217 1.16492 9.31917 1.09051Z" fill="#FFF154"/>
</g>
</svg>
