<svg width="24" height="24" viewBox="0 0 24 24" fill="none" xmlns="http://www.w3.org/2000/svg">
<rect x="0.5" y="0.5" width="23" height="23" rx="11.5" fill="#1D293D"/>
<rect x="0.5" y="0.5" width="23" height="23" rx="11.5" stroke="#314158"/>
<g opacity="0.5">
<path fill-rule="evenodd" clip-rule="evenodd" d="M11.2915 6.65431C11.3977 6.60966 11.5185 6.6163 11.6192 6.67231C12.7931 7.32543 14.0836 8.46952 15.0563 9.75116C16.0193 11.02 16.7289 12.5009 16.6123 13.8242C16.5206 14.8651 16.0876 15.6554 15.4372 16.2345C14.7958 16.8056 13.9614 17.1558 13.0813 17.3649C12.9286 17.4011 12.7695 17.3385 12.6825 17.2079C12.5955 17.0773 12.599 16.9064 12.6912 16.7795L12.6916 16.779L12.6934 16.7766L12.7015 16.7653C12.7087 16.7551 12.7197 16.7396 12.7339 16.7193C12.7623 16.6786 12.8036 16.6187 12.8539 16.543C12.9548 16.3914 13.0914 16.1778 13.2338 15.9306C13.522 15.4303 13.8106 14.8318 13.9022 14.3388C13.9791 13.5262 13.725 12.8537 13.3728 12.3412C13.2324 12.1369 13.0782 11.9605 12.9262 11.8135C12.9276 11.8777 12.9277 11.9442 12.9263 12.0125C12.9142 12.609 12.7818 13.4056 12.2355 14.0068C12.1448 14.1065 12.0077 14.1499 11.8762 14.1205C11.7447 14.0912 11.6391 13.9935 11.5995 13.8647C11.3628 13.0941 10.9892 12.7345 10.7032 12.5613C10.707 12.6707 10.7006 12.7771 10.685 12.8807C10.6392 13.1855 10.5177 13.4426 10.3901 13.6609C10.3266 13.7696 10.2587 13.8732 10.1964 13.9678L10.1852 13.9848C10.1257 14.0752 10.072 14.1567 10.023 14.2384C9.91899 14.412 9.85561 14.5559 9.83536 14.6982C9.72634 15.4644 9.9505 15.9522 10.1802 16.2478C10.2984 16.3998 10.4227 16.5068 10.516 16.5747C10.5624 16.6085 10.6004 16.6321 10.625 16.6465C10.6372 16.6536 10.646 16.6583 10.6507 16.6608L10.6541 16.6625L10.6532 16.6621L10.6526 16.6618L10.6541 16.6625C10.8323 16.7491 10.9129 16.9598 10.8371 17.1432C10.761 17.3275 10.5539 17.42 10.3658 17.3537C8.58562 16.7256 7.71025 15.4951 7.45576 14.2397C7.20867 13.0208 7.54846 11.7686 8.20406 11.0756C8.46459 10.7658 8.70902 10.4824 8.93723 10.2178C10.0215 8.96063 10.7394 8.12833 11.0752 6.90105C11.1056 6.78993 11.1853 6.69896 11.2915 6.65431Z" fill="#F78E5D"/>
</g>
</svg>
