<svg width="24" height="24" viewBox="0 0 24 24" fill="none" xmlns="http://www.w3.org/2000/svg">
<rect x="0.5" y="0.5" width="23" height="23" rx="11.5" fill="#1D293D"/>
<rect x="0.5" y="0.5" width="23" height="23" rx="11.5" stroke="#314158"/>
<g opacity="0.5">
<path d="M12.7292 7.625C12.7292 6.90013 13.3168 6.3125 14.0417 6.3125C14.7665 6.3125 15.3542 6.90013 15.3542 7.625C15.3542 8.34987 14.7665 8.9375 14.0417 8.9375C13.3168 8.9375 12.7292 8.34987 12.7292 7.625Z" fill="#F7EA52"/>
<path d="M15.0774 11.3695C14.652 11.4151 14.2674 11.3357 13.9357 11.1924L12.4589 13.4381L13.0047 13.9757C13.4539 14.418 13.7734 14.9731 13.928 15.5821L14.3154 17.1081C14.3947 17.4204 14.2058 17.7378 13.8936 17.817C13.5813 17.8963 13.2639 17.7074 13.1846 17.3952L12.7972 15.8692C12.6954 15.4682 12.4846 15.1009 12.1862 14.807L11.3221 13.956C11.0478 13.74 10.81 13.5525 10.6292 13.3792C10.4356 13.1937 10.265 12.9862 10.1652 12.715C10.0891 12.5082 10.0528 12.2889 10.0581 12.0686C10.065 11.7798 10.1595 11.5282 10.2829 11.2902C10.3988 11.0666 10.6629 10.6592 10.8541 10.3643C10.5048 10.4377 10.2269 10.5437 10.0001 10.6729C9.57555 10.9147 9.27545 11.2685 9.02016 11.7714C8.87432 12.0587 8.52321 12.1733 8.23595 12.0275C7.94868 11.8816 7.83403 11.5305 7.97987 11.2433C8.30791 10.5971 8.74797 10.0435 9.42267 9.65918C10.0877 9.28039 10.9249 9.09797 11.9931 9.08534C12.1245 9.08379 12.3348 9.08334 12.5247 9.08338C12.657 9.08338 12.7873 9.08339 12.8986 9.09203C13.0219 9.10162 13.1658 9.12414 13.3134 9.19308C13.474 9.26811 13.5946 9.38335 13.6822 9.47552C13.7699 9.56779 13.8702 9.68772 13.9812 9.82034C14.0399 9.89038 14.0878 9.93718 14.1 9.94631C14.352 10.1353 14.6402 10.243 14.9531 10.2095C15.265 10.1761 15.702 9.99149 16.2306 9.39654C16.4446 9.15571 16.8133 9.13394 17.0541 9.34793C17.295 9.56192 17.3167 9.93063 17.1027 10.1715C16.4429 10.914 15.7583 11.2965 15.0774 11.3695Z" fill="#F7EA52"/>
<path fill-rule="evenodd" clip-rule="evenodd" d="M10.5213 13.8169C10.8065 13.9668 10.9162 14.3194 10.7664 14.6046C10.1712 15.7374 8.84779 16.3025 7.59394 16.0042L7.19831 15.9101C6.88489 15.8356 6.69126 15.5211 6.76583 15.2076C6.84039 14.8942 7.15492 14.7006 7.46833 14.7751L7.86396 14.8693C8.62658 15.0507 9.39921 14.6984 9.73359 14.062C9.88344 13.7768 10.2361 13.6671 10.5213 13.8169Z" fill="#F7EA52"/>
</g>
</svg>
