<svg width="24" height="24" viewBox="0 0 24 24" fill="none" xmlns="http://www.w3.org/2000/svg">
<rect x="0.5" y="0.5" width="23" height="23" rx="11.5" fill="#1D293D"/>
<rect x="0.5" y="0.5" width="23" height="23" rx="11.5" stroke="#314158"/>
<g opacity="0.5" clip-path="url(#clip0_1_485)">
<path d="M13.4749 11.2608C12.4481 11.716 11.716 12.4481 11.2608 13.4749C11.1119 13.8107 10.8794 14.0805 10.5861 14.2699L9.8418 13.5256C10.0765 13.4474 10.2473 13.2937 10.3466 13.0696C10.9023 11.8159 11.8159 10.9023 13.0696 10.3466C13.2937 10.2473 13.4474 10.0765 13.5256 9.8418L14.2699 10.5861C14.0805 10.8794 13.8107 11.1119 13.4749 11.2608Z" fill="#7CCF00"/>
<path fill-rule="evenodd" clip-rule="evenodd" d="M10.6453 16.7725C10.4636 16.8114 10.273 16.7948 10.099 16.7227C9.99534 16.6798 9.91237 16.6176 9.84028 16.5547L7.44464 14.1591C7.38175 14.087 7.31958 14.004 7.27666 13.9004C7.20457 13.7264 7.18799 13.5358 7.2269 13.3541C7.26234 13.1887 7.3585 13.0721 7.42828 13.0024L7.97113 12.4595C8.04089 12.3897 8.15749 12.2936 8.3229 12.2581C8.50454 12.2192 8.69514 12.2358 8.86919 12.3079C8.97282 12.3508 9.12788 12.4759 9.12788 12.4759L11.5235 14.8715C11.5864 14.9436 11.6485 15.0266 11.6915 15.1302C11.7636 15.3042 11.7801 15.4948 11.7412 15.6765C11.7058 15.8419 11.6096 15.9585 11.5399 16.0283L10.997 16.5711C10.9273 16.6409 10.8107 16.737 10.6453 16.7725ZM8.7092 17.375C8.93756 17.375 9.11904 17.2779 9.27201 17.1612C9.2789 17.156 9.28582 17.1506 9.29277 17.1451C9.40078 17.06 9.45479 17.0175 9.45877 16.9502C9.46275 16.883 9.41023 16.8304 9.30518 16.7254L7.27474 14.6949C7.16969 14.5899 7.11716 14.5374 7.04989 14.5414C6.98262 14.5453 6.94008 14.5993 6.85501 14.7073C6.84953 14.7143 6.84416 14.7212 6.8389 14.7281C6.72219 14.8811 6.62515 15.0626 6.62515 15.2909C6.62515 15.5193 6.72219 15.7008 6.8389 15.8537C6.916 15.9548 7.01683 16.0622 7.13044 16.1777L6.76811 16.54C6.57729 16.7308 6.57729 17.0402 6.76811 17.231C6.95893 17.4219 7.26832 17.4219 7.45915 17.231L7.82148 16.8687C7.93728 16.9827 8.04506 17.0839 8.1464 17.1612C8.29936 17.2779 8.48084 17.375 8.7092 17.375Z" fill="#7CCF00"/>
<path fill-rule="evenodd" clip-rule="evenodd" d="M14.728 6.83875C14.8809 6.72205 15.0624 6.625 15.2908 6.625C15.5191 6.625 15.7006 6.72205 15.8536 6.83875C15.9548 6.916 16.0625 7.01706 16.1782 7.13093L16.541 6.76812C16.7318 6.57729 17.0412 6.57729 17.232 6.76812C17.4228 6.95894 17.4228 7.26833 17.232 7.45915L16.8692 7.82197C16.9829 7.93754 17.0839 8.0451 17.1611 8.14625C17.2778 8.29921 17.3748 8.4807 17.3748 8.70905C17.3748 8.93741 17.2778 9.11889 17.1611 9.27186C17.1558 9.27875 17.1504 9.28568 17.145 9.29263C17.0599 9.40064 17.0173 9.45464 16.9501 9.45862C16.8828 9.4626 16.8303 9.41008 16.7252 9.30503L14.6948 7.27459C14.5897 7.16954 14.5372 7.11701 14.5412 7.04974C14.5452 6.98246 14.5992 6.93993 14.7072 6.85486C14.7141 6.84938 14.7211 6.84401 14.728 6.83875ZM13.3547 7.22749C13.5363 7.18858 13.7269 7.20516 13.901 7.27726C14.0046 7.32018 14.0876 7.38234 14.1597 7.44523L16.5553 9.84086C16.6182 9.91296 16.6804 9.99593 16.7233 10.0995C16.7954 10.2736 16.812 10.4642 16.7731 10.6459C16.7376 10.8113 16.6415 10.9278 16.5717 10.9976L16.0288 11.5405C15.9591 11.6102 15.8425 11.7064 15.6771 11.7418C15.4954 11.7807 15.3048 11.7642 15.1308 11.6921C15.0272 11.6491 14.8721 11.5241 14.8721 11.5241L12.4764 9.12847C12.4136 9.05637 12.3514 8.97341 12.3085 8.86979C12.2364 8.69573 12.2198 8.50513 12.2587 8.32348C12.2942 8.15808 12.3903 8.04149 12.4601 7.97171L13.0029 7.42887C13.0727 7.3591 13.1893 7.26293 13.3547 7.22749Z" fill="#7CCF00"/>
</g>
<defs>
<clipPath id="clip0_1_485">
<rect width="12" height="12" fill="white" transform="translate(6 6)"/>
</clipPath>
</defs>
</svg>
