<svg width="25" height="24" viewBox="0 0 25 24" fill="none" xmlns="http://www.w3.org/2000/svg">
<path d="M2.85157 13.2135C2.49855 10.9162 2.32204 9.76763 2.75635 8.74938C3.19065 7.73112 4.15421 7.03443 6.08132 5.64106L7.52117 4.6C9.91847 2.86667 11.1171 2 12.5002 2C13.8832 2 15.0819 2.86667 17.4792 4.6L18.919 5.64106C20.8462 7.03443 21.8097 7.73112 22.244 8.74938C22.6783 9.76763 22.5018 10.9162 22.1488 13.2135L21.8478 15.1724C21.3473 18.4289 21.0971 20.0572 19.9292 21.0286C18.7613 22 17.0538 22 13.639 22H11.3614C7.94652 22 6.23909 22 5.07118 21.0286C3.90327 20.0572 3.65305 18.4289 3.15261 15.1724L2.85157 13.2135Z" fill="#020618" stroke="#020618" stroke-width="1.5" stroke-linejoin="round"/>
<path d="M15.5001 17C14.7006 17.6224 13.6503 18 12.5001 18C11.3498 18 10.2997 17.6224 9.50012 17" stroke="#9AE600" stroke-width="1.5" stroke-linecap="round"/>
</svg>
