<svg width="48" height="40" viewBox="0 0 48 40" fill="none" xmlns="http://www.w3.org/2000/svg">
<path d="M38.13 0.220337C34.865 0.220337 32.215 2.86534 32.215 6.13534C32.21 7.03534 32.415 7.93034 32.815 8.74034C33.46 10.0553 34.565 11.0903 35.925 11.6453L35.915 11.6203C36.62 11.9053 37.37 12.0553 38.13 12.0503C41.4 12.0503 44.05 9.40034 44.05 6.13534C44.05 2.86534 41.4 0.220337 38.13 0.220337ZM7.63602 19.0748H1.59603C0.931025 19.0748 0.321025 18.5948 0.256025 17.9348C0.238086 17.7582 0.257477 17.5797 0.31294 17.4111C0.368402 17.2424 0.458699 17.0873 0.577973 16.9557C0.697248 16.8242 0.842837 16.7192 1.0053 16.6476C1.16776 16.5759 1.34347 16.5392 1.52103 16.5398H7.63602C7.98602 16.5398 8.30103 16.6798 8.53103 16.9098C8.76103 17.1398 8.90103 17.4548 8.90103 17.8048C8.90103 18.5048 8.33603 19.0748 7.63602 19.0748Z" fill="#FFF154"/>
<path d="M47.75 16.6899C47.725 17.3849 47.42 18.0399 46.905 18.4999L40.145 24.7349C39.875 24.9849 39.48 25.0299 39.165 24.8549L33.12 21.5249L30.72 23.9149L34.505 30.2749C34.695 30.5849 34.66 30.9749 34.43 31.2549L28.076 38.8589C27.862 39.1205 27.5977 39.3366 27.2989 39.4946C27.0001 39.6526 26.6727 39.7492 26.336 39.7789H26.306C25.696 39.7789 25.086 39.5939 24.616 39.2039C24.0869 38.768 23.7361 38.153 23.6301 37.4757C23.5241 36.7983 23.6703 36.1056 24.041 35.5289L26.841 31.0989L23.461 27.2489L9.76654 36.8839C9.34154 37.1789 8.82654 37.3389 8.30654 37.3389C7.53654 37.3389 6.80654 36.9989 6.31154 36.4089C5.90187 35.9193 5.69185 35.2932 5.72336 34.6556C5.75487 34.018 6.0256 33.4157 6.48154 32.9689L18.6415 20.7644L18.7615 20.6444L20.3315 19.0744L24.8615 14.5444L23.1865 12.4194C23.0967 12.3034 22.9841 12.207 22.8558 12.1359C22.7274 12.0649 22.5859 12.0208 22.4399 12.0063C22.2939 11.9918 22.1465 12.0072 22.0066 12.0516C21.8668 12.0959 21.7375 12.1684 21.6265 12.2644L19.3265 14.2394C19.062 14.4418 18.7601 14.59 18.4382 14.6757C18.1164 14.7613 17.7808 14.7827 17.4506 14.7386C17.1205 14.6945 16.8022 14.5858 16.5141 14.4186C16.226 14.2514 15.9737 14.0291 15.7715 13.7644C15.4155 13.2971 15.2325 12.7209 15.2534 12.1338C15.2744 11.5468 15.4981 10.9851 15.8865 10.5444L23.1665 3.1699C23.4915 2.8449 24.0215 2.8449 24.3465 3.1699L31.406 9.7599L34.956 13.0749L39.266 17.0899C39.651 17.4449 40.241 17.4549 40.636 17.1149L43.476 14.6549C44.476 13.7899 45.9755 13.8499 46.9155 14.7799L46.9805 14.8499C47.4805 15.3299 47.755 15.9999 47.75 16.6899Z" fill="#FFF154"/>
<path d="M13.716 22.625L11.171 25.16H3.25099C2.55099 25.16 1.98099 24.595 1.98099 23.895C1.98099 23.195 2.55099 22.625 3.25099 22.625H13.716ZM7.61099 28.705L5.06599 31.24H3.72599C3.02599 31.24 2.45599 30.675 2.45599 29.975C2.45599 29.275 3.02599 28.705 3.72599 28.705H7.61099ZM19.821 16.54L17.276 19.075H14.831C14.131 19.075 13.566 18.505 13.566 17.805C13.566 17.105 14.131 16.54 14.831 16.54H19.821Z" fill="#FFF154"/>
</svg>
