<svg width="14" height="15" viewBox="0 0 14 15" fill="none" xmlns="http://www.w3.org/2000/svg">
<path d="M13.8906 8.346C13.5371 9.689 11.8667 10.638 8.5257 12.5361C5.296 14.3709 3.6812 15.2884 2.37983 14.9196C1.8418 14.7671 1.35159 14.4776 0.95624 14.0787C1.78814e-07 13.1139 0 11.2426 0 7.5C0 3.7574 1.78814e-07 1.8861 0.95624 0.92132C1.35159 0.52245 1.8418 0.23288 2.37983 0.0804203C3.6812 -0.28835 5.296 0.62907 8.5257 2.46393C11.8667 4.36197 13.5371 5.311 13.8906 6.654C14.0365 7.2084 14.0365 7.7916 13.8906 8.346Z" fill="#9AE600"/>
</svg>
