<svg width="20" height="20" viewBox="0 0 20 20" fill="none" xmlns="http://www.w3.org/2000/svg">
<g opacity="0.5">
<path d="M11.0417 3.75C11.0417 2.71447 11.8812 1.875 12.9167 1.875C13.9522 1.875 14.7917 2.71447 14.7917 3.75C14.7917 4.78553 13.9522 5.625 12.9167 5.625C11.8812 5.625 11.0417 4.78553 11.0417 3.75Z" fill="#E2E8F0"/>
<path d="M14.3963 9.09925C13.7886 9.16442 13.2391 9.05092 12.7653 8.84617L10.6555 12.0544L11.4353 12.8223C12.0769 13.4543 12.5334 14.2473 12.7543 15.1173L13.3078 17.2973C13.421 17.7433 13.1512 18.1968 12.7051 18.31C12.259 18.4233 11.8055 18.1534 11.6923 17.7073L11.1388 15.5274C10.9934 14.9545 10.6923 14.4298 10.2659 14.0099L9.03151 12.7943C8.63968 12.4857 8.30001 12.2178 8.04166 11.9703C7.76511 11.7053 7.5214 11.4088 7.37887 11.0213C7.27018 10.7259 7.21826 10.4127 7.22583 10.098C7.23576 9.68534 7.37077 9.326 7.54704 8.98592C7.7126 8.66659 8.08981 8.08457 8.36293 7.6632C7.86393 7.76809 7.46704 7.91956 7.14298 8.10414C6.53649 8.44959 6.10778 8.955 5.74307 9.67334C5.53473 10.0838 5.03316 10.2475 4.62278 10.0392C4.2124 9.83084 4.04861 9.32925 4.25696 8.91892C4.72558 7.99582 5.35423 7.20494 6.31809 6.65593C7.26811 6.1148 8.46418 5.8542 9.99018 5.83615C10.1778 5.83394 10.4783 5.8333 10.7496 5.83335C10.9386 5.83335 11.1248 5.83336 11.2837 5.84571C11.4598 5.8594 11.6654 5.89158 11.8763 5.99007C12.1057 6.09725 12.278 6.26189 12.4032 6.39355C12.5284 6.52537 12.6718 6.69669 12.8303 6.88615C12.9141 6.98621 12.9825 7.05306 12.9999 7.06611C13.3599 7.33605 13.7717 7.49 14.2188 7.44209C14.6643 7.39433 15.2886 7.13065 16.0438 6.28073C16.3494 5.93668 16.8762 5.90559 17.2202 6.21129C17.5643 6.51698 17.5953 7.0437 17.2896 7.38775C16.347 8.44859 15.369 8.995 14.3963 9.09925Z" fill="#E2E8F0"/>
<path fill-rule="evenodd" clip-rule="evenodd" d="M7.88758 12.5956C8.295 12.8097 8.45173 13.3135 8.23769 13.7209C7.38743 15.3392 5.49684 16.1465 3.70562 15.7203L3.14044 15.5859C2.69269 15.4794 2.41609 15.0301 2.5226 14.5823C2.62913 14.1346 3.07844 13.858 3.52619 13.9645L4.09137 14.099C5.18083 14.3582 6.28458 13.8549 6.76227 12.9457C6.97634 12.5383 7.48015 12.3816 7.88758 12.5956Z" fill="#E2E8F0"/>
</g>
</svg>
